<svg width="82" height="82" viewBox="0 0 82 82" fill="none" xmlns="http://www.w3.org/2000/svg">
<path d="M81 41.0025C81 63.0955 63.0903 81.0044 41.003 81.0044C18.9084 81.0044 1 63.0955 1 41.0025C1 18.9148 18.9084 1.00439 41.003 1.00439C63.0913 1.00445 81 18.9148 81 41.0025Z" fill="#E0E2DB" stroke="#E0E2DB" stroke-width="1.69732" stroke-miterlimit="10"/>
<path d="M56.3802 55.6161C55.627 55.6161 54.8559 55.5619 54.0974 55.449C47.7393 54.5415 43.4878 49.975 41.1065 46.4645C38.7175 49.9749 34.4664 54.546 28.1111 55.4523C27.3549 55.5606 26.5919 55.6149 25.828 55.6148C21.8751 55.6148 18.1642 54.1435 15.3729 51.4721C12.555 48.7786 11 45.1642 11 41.31C11 37.4511 12.5549 33.8416 15.377 31.1432C18.1656 28.4714 21.8792 27.0044 25.8338 27.0044C26.5875 27.0044 27.3547 27.0585 28.1105 27.1668C34.466 28.0732 38.717 32.6403 41.106 36.1514C43.4879 32.6403 47.739 28.0745 54.0966 27.1668C54.855 27.0581 55.6221 27.0044 56.3758 27.0044C60.3287 27.0044 64.0421 28.4752 66.8307 31.1432C69.6513 33.8416 71.2028 37.4511 71.2028 41.31C71.2028 45.1642 69.6553 48.7786 66.8347 51.4721C64.0412 54.1434 60.3333 55.6161 56.3802 55.6161ZM43.9217 41.3115C45.1634 43.6765 48.8264 49.5776 54.8139 50.4352C55.338 50.5074 55.8657 50.5474 56.3797 50.5474C61.7581 50.5474 66.1361 46.4048 66.1361 41.3101C66.1361 36.2154 61.7591 32.0728 56.3759 32.0728C55.8618 32.0728 55.3343 32.1095 54.815 32.1849C48.8265 33.0405 45.1634 38.9416 43.9217 41.3115ZM25.8338 32.0741C20.4482 32.0741 16.0695 36.2165 16.0695 41.3114C16.0695 46.4053 20.4464 50.5488 25.8271 50.5488C26.3435 50.5488 26.8712 50.5086 27.3953 50.4366C33.3829 49.5791 37.0448 43.6812 38.2873 41.3129C37.0482 38.9479 33.3829 33.0418 27.3953 32.1891C26.8774 32.1108 26.3483 32.0741 25.8338 32.0741Z" fill="#2F2F2F"/>
<path d="M21.7483 39.9128H30.6529V42.7822H21.7483V39.9128ZM60.378 39.9128H57.3634V36.8936H54.4843V39.9128H51.471V42.7822H54.4843V45.8008H57.3634V42.7822H60.378V39.9128Z" fill="#2F2F2F"/>
</svg>
