<svg width="80" height="80" viewBox="0 0 80 80" fill="none" xmlns="http://www.w3.org/2000/svg">
<path d="M40 80.0044C62.0914 80.0044 80 62.0958 80 40.0044C80 17.913 62.0914 0.00439453 40 0.00439453C17.9086 0.00439453 0 17.913 0 40.0044C0 62.0958 17.9086 80.0044 40 80.0044Z" fill="#E0E2DB"/>
<path d="M31.2735 37.4341C31.2735 37.9263 31.3281 38.3247 31.4219 38.6138C31.5313 38.9106 31.6641 39.231 31.8516 39.5747C31.9219 39.6763 31.9453 39.7856 31.9453 39.8794C31.9453 40.0122 31.8672 40.145 31.6953 40.2778L30.8594 40.8325C30.7578 40.9028 30.6406 40.9497 30.5156 40.9497C30.3828 40.9497 30.25 40.8794 30.1172 40.7622C29.9375 40.5669 29.7813 40.3638 29.6406 40.1372C29.4922 39.8794 29.3516 39.6216 29.2266 39.356C28.1875 40.5825 26.8828 41.1919 25.3125 41.1919C24.1953 41.1919 23.3047 40.8716 22.6563 40.2388C22.0078 39.5981 21.6719 38.7466 21.6719 37.6841C21.6719 36.5513 22.0703 35.6372 22.8828 34.9419C23.6953 34.2466 24.7735 33.9028 26.1406 33.9028C26.5938 33.9028 27.0625 33.9419 27.5469 34.0122C28.0391 34.0825 28.5469 34.1841 29.0781 34.3091V33.3403C29.0781 32.3325 28.8672 31.6216 28.4531 31.2153C28.0313 30.8013 27.3125 30.606 26.2891 30.606C25.8203 30.606 25.3438 30.6606 24.8516 30.7778C24.3594 30.895 23.8828 31.0435 23.4141 31.231C23.2656 31.3013 23.1094 31.356 22.9453 31.4028C22.875 31.4263 22.8047 31.4341 22.7344 31.4419C22.5469 31.4419 22.4531 31.3091 22.4531 31.0278V30.3794C22.4531 30.1685 22.4766 30.0044 22.5469 29.9106C22.6485 29.7935 22.7735 29.6919 22.9219 29.6294C23.3906 29.3872 23.9453 29.1919 24.5938 29.0278C25.2735 28.856 25.9688 28.77 26.6719 28.7778C28.2578 28.7778 29.4141 29.1372 30.1563 29.856C30.8906 30.5747 31.2578 31.6606 31.2578 33.1294V37.4419L31.2735 37.4341ZM25.875 39.4575C26.3125 39.4575 26.7656 39.3794 27.2422 39.2153C27.7188 39.0591 28.1485 38.7622 28.5078 38.3638C28.7188 38.1138 28.8828 37.8325 28.961 37.5122C29.0391 37.1919 29.0938 36.8091 29.0938 36.356V35.8013C28.6875 35.6997 28.2813 35.6294 27.8672 35.5747C27.4531 35.52 27.0313 35.4966 26.6172 35.4966C25.7266 35.4966 25.0703 35.6685 24.6328 36.0278C24.1953 36.3872 23.9844 36.895 23.9844 37.5591C23.9844 38.1841 24.1406 38.6528 24.4766 38.9653C24.7969 39.3013 25.2578 39.4575 25.875 39.4575ZM36.5547 40.895C36.3125 40.895 36.1563 40.856 36.0469 40.7622C35.9375 40.6841 35.8438 40.4966 35.7656 40.2466L32.6406 29.9653C32.5781 29.7935 32.5391 29.6138 32.5235 29.4341C32.5235 29.2231 32.6328 29.0981 32.8438 29.0981H34.1485C34.3985 29.0981 34.5703 29.1372 34.6641 29.231C34.7735 29.3091 34.8516 29.4966 34.9297 29.7544L37.1641 38.5591L39.2422 29.7544C39.3125 29.4888 39.3906 29.3169 39.4922 29.231C39.6485 29.1294 39.836 29.0825 40.0235 29.0981H41.0938C41.3438 29.0981 41.5235 29.1372 41.625 29.231C41.7266 29.3091 41.8281 29.4966 41.875 29.7544L43.9766 38.6685L46.2813 29.7544C46.3594 29.4888 46.4531 29.3169 46.5469 29.231C46.7031 29.1294 46.8828 29.0825 47.0625 29.0981H48.3047C48.5156 29.0981 48.6406 29.2075 48.6406 29.4341C48.6406 29.5044 48.625 29.5669 48.6094 29.645C48.586 29.7622 48.5547 29.8716 48.5156 29.981L45.3125 40.2622C45.2344 40.5278 45.1406 40.6997 45.0313 40.7778C44.8828 40.8716 44.7031 40.9185 44.5235 40.9106H43.375C43.125 40.9106 42.9531 40.8716 42.8438 40.7778C42.7422 40.6841 42.6485 40.5122 42.5938 40.2466L40.5313 31.6685L38.4844 40.2388C38.4141 40.5044 38.336 40.6763 38.2344 40.77C38.125 40.8638 37.9375 40.9028 37.7031 40.9028L36.5547 40.895ZM53.6485 41.2544C52.9531 41.2544 52.2656 41.1763 51.6016 41.0122C50.9375 40.856 50.4219 40.6763 50.0703 40.481C49.8594 40.3638 49.711 40.231 49.6563 40.106C49.6016 39.9888 49.5781 39.8638 49.5781 39.731V39.0513C49.5781 38.77 49.6875 38.6372 49.8828 38.6372C49.961 38.6372 50.0391 38.6528 50.125 38.6763C50.2031 38.6997 50.3281 38.7544 50.461 38.8091C50.9141 39.0122 51.4063 39.1685 51.9219 39.2778C52.4531 39.3872 52.9688 39.4341 53.5078 39.4341C54.3438 39.4341 55 39.2856 55.4531 38.9966C55.8906 38.731 56.1563 38.2466 56.1485 37.731C56.1563 37.3872 56.0313 37.0513 55.7891 36.8013C55.5469 36.5513 55.0938 36.3247 54.4453 36.106L52.5156 35.5044C51.5469 35.1997 50.8281 34.7466 50.3906 34.1528C49.961 33.5981 49.7266 32.9185 49.7266 32.2231C49.7266 31.6685 49.8516 31.1763 50.0859 30.7466C50.3281 30.3247 50.6406 29.9497 51.0469 29.6528C51.4453 29.3481 51.8984 29.1216 52.4297 28.9575C52.9609 28.8013 53.5234 28.731 54.1094 28.731C54.3984 28.731 54.711 28.7466 55 28.7856C55.3047 28.8247 55.5859 28.8794 55.8672 28.9341C56.1328 29.0044 56.3906 29.0669 56.625 29.145C56.8672 29.2231 57.0547 29.3013 57.1875 29.3872C57.3438 29.4653 57.4844 29.5825 57.5859 29.7231C57.6719 29.856 57.7109 30.0044 57.7031 30.1606V30.7856C57.7031 31.0669 57.5938 31.2153 57.3985 31.2153C57.2188 31.1919 57.0469 31.1372 56.8906 31.0591C56.086 30.7075 55.2188 30.5278 54.336 30.5435C53.5781 30.5435 52.9766 30.6606 52.5625 30.9185C52.1484 31.1685 51.9375 31.5591 51.9375 32.0981C51.9375 32.4731 52.0703 32.7935 52.336 33.0435C52.6016 33.2935 53.0938 33.5513 53.7969 33.7778L55.6875 34.3716C56.6406 34.6763 57.336 35.106 57.75 35.6528C58.1641 36.1997 58.3594 36.8247 58.3594 37.5122C58.3594 38.0825 58.2422 38.606 58.0156 39.0591C57.7734 39.5122 57.4531 39.9106 57.0469 40.231C56.6328 40.5669 56.1406 40.8013 55.5703 40.9731C54.9531 41.1606 54.3281 41.2544 53.6485 41.2544ZM56.1641 47.7153C51.7891 50.9497 45.4297 52.6606 39.961 52.6606C32.2969 52.6606 25.3906 49.8247 20.1797 45.1138C19.7656 44.7388 20.1406 44.2388 20.6328 44.5278C26.2735 47.8013 33.2344 49.7856 40.4297 49.7856C45.2891 49.7856 50.6172 48.7778 55.5313 46.6997C56.2578 46.3716 56.8828 47.1841 56.1641 47.7153ZM57.9844 45.645C57.4219 44.9263 54.2813 45.3013 52.8594 45.4731C52.4375 45.5278 52.3672 45.1528 52.7578 44.8716C55.2578 43.1138 59.3672 43.6216 59.8516 44.2075C60.3281 44.8091 59.7188 48.9185 57.375 50.8872C57.0156 51.1919 56.6719 51.0356 56.8281 50.6372C57.3594 49.3169 58.5469 46.3481 57.9844 45.645Z" fill="#2F2F2F"/>
</svg>
