<svg width="80" height="80" viewBox="0 0 80 80" fill="none" xmlns="http://www.w3.org/2000/svg">
<path d="M13.6833 13.6877C13.6833 13.6877 30.5267 5.27108 38.9467 1.05775C40.4792 0.302288 42.176 -0.0586249 43.8833 0.00774798C46.4367 0.164415 49.4733 2.63441 49.4733 2.63441L80 33.1644V65.7944H65.79V80.0044H32.63L2.63 50.0044C1.01 48.3377 0 45.9877 0 43.6877C0 42.6244 0.6 40.9611 1.05333 40.0044L13.6833 13.6877ZM15.9467 15.9511V55.2411C15.9533 57.0511 16.0167 58.6544 17.6067 60.2677L34.0133 76.6711H62.4567V62.4611L15.9467 15.9511ZM56.13 13.6911C53.1333 10.7044 50.1 7.75775 46.9967 4.88108C45.99 3.99108 45.1067 3.32108 43.43 3.34108C42.1967 3.38775 40.53 3.99108 40.53 3.99108L21.1367 13.6877L56.13 13.6911Z" fill="#E0E2DB"/>
</svg>
