<svg width="113" height="81" viewBox="0 0 113 81" fill="none" xmlns="http://www.w3.org/2000/svg">
<path d="M111.05 31.1045C110.749 30.8648 107.923 28.7355 101.976 28.7355C100.405 28.7408 98.8369 28.8751 97.2879 29.1368C96.1341 21.2383 89.6068 17.3922 89.317 17.2194L87.7172 16.2997L86.6637 17.8158C85.3474 19.854 84.3862 22.1007 83.8209 24.4602C82.7562 28.9696 83.4028 33.2004 85.6938 36.8235C82.929 38.362 78.4921 38.741 77.5946 38.7745H4.15579C3.23421 38.7759 2.35062 39.1419 1.69791 39.7925C1.04521 40.4432 0.676393 41.3256 0.671978 42.2471C0.586929 48.6799 1.67688 55.0742 3.88824 61.1155C6.41888 67.7487 10.1814 72.6372 15.0755 75.6249C20.5604 78.9861 29.479 80.9036 39.5792 80.9036C44.1444 80.9203 48.6985 80.5022 53.1856 79.6717C59.4226 78.5239 65.4246 76.3443 70.9447 73.2225C75.4922 70.5895 79.5843 67.239 83.0628 63.3005C88.8822 56.7119 92.3493 49.382 94.9245 42.8603H95.9502C102.321 42.8603 106.24 40.3129 108.397 38.1725C109.835 36.8124 110.956 35.1513 111.68 33.3119L112.149 31.9741L111.05 31.1045Z" fill="#E0E2DB"/>
<path d="M10.9619 36.6174H20.8002C21.0279 36.6174 21.2462 36.5269 21.4072 36.3659C21.5682 36.2049 21.6586 35.9866 21.6586 35.7589V26.9964C21.6594 26.8837 21.6379 26.7719 21.5954 26.6675C21.553 26.5631 21.4904 26.468 21.4112 26.3878C21.332 26.3076 21.2377 26.2437 21.1339 26.1999C21.03 26.1561 20.9185 26.1332 20.8058 26.1325H10.9619C10.7343 26.1325 10.5159 26.2229 10.3549 26.3839C10.194 26.5449 10.1035 26.7632 10.1035 26.9909V35.7645C10.1035 36.2327 10.4881 36.6174 10.9619 36.6174ZM24.5237 36.6174H34.362C34.5897 36.6174 34.808 36.5269 34.969 36.3659C35.13 36.2049 35.2204 35.9866 35.2204 35.7589V26.9964C35.2219 26.8835 35.2009 26.7714 35.1587 26.6667C35.1166 26.5619 35.054 26.4666 34.9746 26.3862C34.8953 26.3058 34.8008 26.242 34.6966 26.1984C34.5924 26.1549 34.4805 26.1324 34.3676 26.1325H24.5237C24.4101 26.1317 24.2974 26.1536 24.1922 26.1967C24.0871 26.2399 23.9915 26.3035 23.9111 26.3839C23.8308 26.4642 23.7672 26.5598 23.724 26.6649C23.6808 26.7701 23.659 26.8828 23.6597 26.9964V35.7645C23.6653 36.2327 24.0499 36.6174 24.5237 36.6174ZM38.2918 36.6174H48.1301C48.3577 36.6174 48.5761 36.5269 48.7371 36.3659C48.898 36.2049 48.9885 35.9866 48.9885 35.7589V26.9964C48.9892 26.8837 48.9677 26.7719 48.9253 26.6675C48.8828 26.5631 48.8202 26.468 48.741 26.3878C48.6618 26.3076 48.5676 26.2437 48.4637 26.1999C48.3598 26.1561 48.2484 26.1332 48.1356 26.1325H38.2918C38.0641 26.1325 37.8458 26.2229 37.6848 26.3839C37.5238 26.5449 37.4334 26.7632 37.4334 26.9909V35.7645C37.4334 36.2327 37.818 36.6174 38.2918 36.6174ZM51.8926 36.6174H61.7309C61.9591 36.6174 62.178 36.5271 62.3398 36.3663C62.5017 36.2054 62.5934 35.9871 62.5949 35.7589V26.9964C62.5956 26.8828 62.5738 26.7701 62.5306 26.6649C62.4875 26.5598 62.4238 26.4642 62.3435 26.3839C62.2631 26.3035 62.1675 26.2399 62.0624 26.1967C61.9572 26.1536 61.8445 26.1317 61.7309 26.1325H51.8926C51.6649 26.1325 51.4466 26.2229 51.2856 26.3839C51.1246 26.5449 51.0342 26.7632 51.0342 26.9909V35.7645C51.0342 36.2327 51.4188 36.6174 51.8926 36.6174ZM24.5237 24.0087H34.362C34.8358 24.0087 35.2204 23.6185 35.2204 23.1447V14.3822C35.2204 14.1546 35.13 13.9362 34.969 13.7753C34.808 13.6143 34.5897 13.5238 34.362 13.5238H24.5237C24.2955 13.5238 24.0766 13.6141 23.9148 13.7749C23.7529 13.9357 23.6612 14.1541 23.6597 14.3822V23.1503C23.6653 23.6185 24.0499 24.0087 24.5237 24.0087ZM38.2918 24.0087H48.1301C48.6039 24.0087 48.9885 23.6185 48.9885 23.1447V14.3822C48.9885 14.1546 48.898 13.9362 48.7371 13.7753C48.5761 13.6143 48.3577 13.5238 48.1301 13.5238H38.2918C38.0641 13.5238 37.8458 13.6143 37.6848 13.7753C37.5238 13.9362 37.4334 14.1546 37.4334 14.3822V23.1503C37.4334 23.6185 37.818 24.0087 38.2918 24.0087ZM51.8926 24.0087H61.7309C62.2047 24.0087 62.5949 23.6185 62.5949 23.1447V14.3822C62.5934 14.1541 62.5017 13.9357 62.3398 13.7749C62.178 13.6141 61.9591 13.5238 61.7309 13.5238H51.8926C51.6649 13.5238 51.4466 13.6143 51.2856 13.7753C51.1246 13.9362 51.0342 14.1546 51.0342 14.3822V23.1503C51.0342 23.6185 51.4188 24.0087 51.8926 24.0087ZM51.8926 11.3945H61.7309C61.9591 11.3945 62.178 11.3043 62.3398 11.1434C62.5017 10.9826 62.5934 10.7643 62.5949 10.5361V1.76247C62.5934 1.53429 62.5017 1.31596 62.3398 1.15514C62.178 0.99431 61.9591 0.904048 61.7309 0.904053H51.8926C51.6649 0.904053 51.4466 0.994492 51.2856 1.15548C51.1246 1.31646 51.0342 1.5348 51.0342 1.76247V10.5305C51.0342 11.0099 51.4188 11.3945 51.8926 11.3945ZM65.6216 36.6174H75.4599C75.6881 36.6174 75.907 36.5271 76.0689 36.3663C76.2307 36.2054 76.3224 35.9871 76.3239 35.7589V26.9964C76.3246 26.8828 76.3028 26.7701 76.2596 26.6649C76.2165 26.5598 76.1529 26.4642 76.0725 26.3839C75.9921 26.3035 75.8966 26.2399 75.7914 26.1967C75.6862 26.1536 75.5736 26.1317 75.4599 26.1325H65.6216C65.3939 26.1325 65.1756 26.2229 65.0146 26.3839C64.8536 26.5449 64.7632 26.7632 64.7632 26.9909V35.7645C64.7632 35.877 64.7854 35.9883 64.8286 36.0922C64.8719 36.196 64.9352 36.2903 65.015 36.3695C65.0947 36.4488 65.1894 36.5115 65.2935 36.554C65.3976 36.5966 65.5091 36.6181 65.6216 36.6174Z" fill="#E0E2DB"/>
</svg>
