<svg width="80" height="80" viewBox="0 0 80 80" fill="none" xmlns="http://www.w3.org/2000/svg">
<path d="M26.3959 59.6191C26.396 60.4527 26.2112 61.276 25.8547 62.0296C25.4983 62.7833 24.9792 63.4485 24.3347 63.9773C23.6902 64.5062 22.9364 64.8855 22.1277 65.0881C21.3189 65.2906 20.4753 65.3112 19.6576 65.1485C18.5639 64.931 17.5593 64.3941 16.7707 63.6057C15.9822 62.8172 15.4453 61.8127 15.2278 60.7191C14.992 59.5329 15.144 58.3023 15.6612 57.2091C16.1784 56.1159 17.0335 55.2179 18.1001 54.6478C19.1668 54.0777 20.3886 53.8657 21.585 54.043C22.7814 54.2204 23.8891 54.7777 24.7445 55.6327C25.8018 56.69 26.3958 58.1239 26.3959 59.6191ZM75.5887 53.7507C73.7914 41.2548 67.9951 29.6769 59.0674 20.75C50.1396 11.8232 38.5606 6.02743 26.0635 4.23035C23.0766 5.81572 20.3208 7.80228 17.8727 10.1347V15.5819C30.1593 15.5919 41.9404 20.4741 50.632 29.1576C59.3236 37.8411 64.216 49.6171 64.2362 61.9025H69.6841C71.9959 59.4514 73.9804 56.7113 75.5887 53.7507Z" fill="#E0E2DB"/>
<path d="M80 36.65C80.0003 29.3779 77.8366 22.2701 73.7843 16.2314C69.7319 10.1926 63.9743 5.49607 57.2442 2.73949C52.7757 0.909128 47.9896 -0.020208 43.1608 0.00488962C41.8657 0.00488962 40.6084 0.00488962 39.3512 0.195489L38.5132 2.63349C47.4329 5.75906 55.5358 10.8498 62.2224 17.5291C68.909 24.2085 74.0082 32.3055 77.1429 41.2212L79.581 40.345C79.581 39.126 79.8096 37.907 79.8096 36.5358M43.5825 79.9972C32.0567 79.9973 21.0001 75.4321 12.8323 67.3008C4.66454 59.1695 0.0506111 48.1342 0.000200192 36.6096C-0.0172156 30.8842 1.10185 25.2122 3.29256 19.9223C5.48327 14.6324 8.70207 9.82975 12.7624 5.79268L15.2387 8.11648C11.4652 11.8563 8.46995 16.3064 6.42587 21.21C4.38179 26.1136 3.32937 31.3735 3.32937 36.6859C3.32937 41.9984 4.38179 47.2583 6.42587 52.1619C8.46995 57.0655 11.4652 61.5156 15.2387 65.2554C18.9789 69.0284 23.4296 72.0232 28.3336 74.067C33.2377 76.1108 38.498 77.163 43.811 77.163C49.1239 77.163 54.3843 76.1108 59.2883 74.067C64.1924 72.0232 68.643 69.0284 72.3833 65.2554L74.7073 67.579C70.6066 71.6156 65.7415 74.7931 60.3969 76.9255C55.0523 79.0579 49.3358 80.1022 43.5825 79.9972Z" fill="#E0E2DB"/>
<path d="M43.0918 64.4193C43.4849 60.1311 42.7781 55.8135 41.0384 51.8743C39.2986 47.9352 36.5831 44.5045 33.1486 41.9065C29.469 39.0095 25.0443 37.2133 20.3864 36.7259C19.8039 36.6501 19.2719 36.3564 18.8972 35.9041C18.5226 35.4518 18.3332 34.8744 18.3672 34.2881C18.403 33.8377 18.5738 33.4085 18.8573 33.0565C19.1408 32.7045 19.5238 32.4462 19.9563 32.3151C20.2435 32.2281 20.5452 32.1996 20.8436 32.2311C28.7062 33.0488 35.9252 36.9459 40.9223 43.0704C45.9195 49.1949 48.2884 57.0486 47.511 64.9145C47.3542 66.6576 47.0224 68.3805 46.5205 70.0571L53.1492 71.9235C55.1109 71.3595 57.0224 70.6333 58.8637 69.7523C59.3568 67.1788 59.5992 64.5636 59.5876 61.9433C59.5761 51.9409 55.9867 42.2725 49.4679 34.6855C42.9491 27.0985 33.9312 22.0934 24.0437 20.5748C21.8398 20.1697 19.5806 20.1697 17.3767 20.5748C14.5869 21.3117 12.0802 22.8634 10.1766 25.0316C8.64176 26.8085 7.56996 28.9372 7.0565 31.2282C6.54303 33.5193 6.60381 35.9018 7.23343 38.1637C7.86305 40.4256 9.042 42.4969 10.6654 44.1933C12.2888 45.8897 14.3064 47.1586 16.5386 47.8871C17.7195 48.1687 18.915 48.3849 20.1197 48.5347C23.2314 49.0654 26.055 50.6797 28.0909 53.0918C30.1268 55.5039 31.2436 58.5584 31.2438 61.7147C31.2437 64.2703 30.5027 66.7711 29.1104 68.9143L33.6821 71.8475C35.9227 72.4621 38.2205 72.8449 40.5393 72.9901C41.9059 70.2479 42.7581 67.2784 43.0538 64.2289" fill="#E0E2DB"/>
</svg>
