<svg width="202" height="766" viewBox="0 0 202 766" fill="none" xmlns="http://www.w3.org/2000/svg">
<path d="M101.707 0.292893C101.316 -0.0976311 100.683 -0.0976311 100.293 0.292893L93.9287 6.65685C93.5382 7.04738 93.5382 7.68054 93.9287 8.07107C94.3192 8.46159 94.9524 8.46159 95.3429 8.07107L101 2.41421L106.657 8.07107C107.047 8.46159 107.68 8.46159 108.071 8.07107C108.461 7.68054 108.461 7.04738 108.071 6.65685L101.707 0.292893ZM102 766L102 1H99.9998L99.9998 766H102Z" fill="#E0E2DB"/>
<path d="M110.996 66.9136L100.983 62.237L101.016 73.784L111.002 68.9135L110.996 66.9136ZM190.665 67.1412C190.674 70.0867 193.068 72.4513 196.014 72.4228C198.959 72.3942 201.34 69.9833 201.332 67.0377C201.323 64.0922 198.929 61.7276 195.983 61.7561C193.038 61.7847 190.657 64.1957 190.665 67.1412ZM110.002 68.9232L196.001 68.0894L195.996 66.0895L109.996 66.9232L110.002 68.9232Z" fill="#E0E2DB"/>
<path d="M110.996 339.824L100.983 335.148L101.016 346.694L111.002 341.824L110.996 339.824ZM190.665 340.052C190.674 342.997 193.068 345.362 196.014 345.333C198.959 345.305 201.34 342.894 201.332 339.948C201.323 337.003 198.929 334.638 195.983 334.667C193.038 334.695 190.657 337.106 190.665 340.052ZM110.002 341.834L196.001 341L195.996 339L109.996 339.834L110.002 341.834Z" fill="#E0E2DB"/>
<path d="M110.998 680.56L101.109 675.149L100.891 686.693L110.96 682.559L110.998 680.56ZM190.677 686.659C190.622 689.604 192.96 692.144 195.899 692.332C198.839 692.521 201.267 690.286 201.322 687.341C201.378 684.396 199.04 681.856 196.1 681.668C193.161 681.48 190.733 683.714 190.677 686.659ZM109.963 682.496L195.981 688L196.019 686L110 680.496L109.963 682.496Z" fill="#E0E2DB"/>
<path d="M0.667161 161.973C0.675577 164.918 3.0701 167.283 6.01548 167.254C8.96086 167.226 11.3417 164.815 11.3333 161.869C11.3249 158.924 8.93039 156.559 5.98501 156.588C3.03963 156.616 0.658746 159.027 0.667161 161.973ZM91.0023 162.097L101.015 166.773L100.982 155.226L90.9965 160.097L91.0023 162.097ZM6.0031 162.921L92.0022 162.087L91.9965 160.087L5.99739 160.921L6.0031 162.921Z" fill="#E0E2DB"/>
<path d="M0.667161 681.972C0.675577 684.917 3.0701 687.282 6.01548 687.253C8.96086 687.225 11.3417 684.814 11.3333 681.868C11.3249 678.923 8.93039 676.558 5.98501 676.587C3.03963 676.615 0.658746 679.026 0.667161 681.972ZM91.0023 682.096L101.015 686.772L100.982 675.225L90.9965 680.096L91.0023 682.096ZM6.0031 682.92L92.0022 682.086L91.9965 680.086L5.99739 680.92L6.0031 682.92Z" fill="#E0E2DB"/>
<path d="M60.1905 428C60.1905 425.054 57.8027 422.667 54.8572 422.667C51.9117 422.667 49.5238 425.054 49.5238 428C49.5238 430.946 51.9117 433.333 54.8572 433.333C57.8027 433.333 60.1905 430.946 60.1905 428ZM11.3334 428C11.3334 425.054 8.94555 422.667 6.00003 422.667C3.05452 422.667 0.666701 425.054 0.666701 428C0.666701 430.946 3.05452 433.333 6.00003 433.333C8.94555 433.333 11.3334 430.946 11.3334 428ZM54.8572 427L6.00003 427L6.00003 429L54.8572 429L54.8572 427Z" fill="#E0E2DB"/>
<path d="M54.8572 162L54.8572 428" stroke="#E0E2DB" stroke-width="2"/>
</svg>
