<svg width="554" height="766" viewBox="0 0 554 766" fill="none" xmlns="http://www.w3.org/2000/svg">
<path d="M277.707 0.292908C277.317 -0.0976562 276.683 -0.0976562 276.293 0.292908L269.929 6.65686C269.538 7.04736 269.538 7.68054 269.929 8.07104C270.319 8.46161 270.953 8.46161 271.343 8.07104L277 2.41418L282.657 8.07104C283.047 8.46161 283.681 8.46161 284.071 8.07104C284.462 7.68054 284.462 7.04736 284.071 6.65686L277.707 0.292908ZM278 766L278 1H276L276 766H278Z" fill="#E0E2DB"/>
<path d="M286.992 66.9765L276.953 62.2372L277.047 73.7838L287.008 68.9765L286.992 66.9765ZM542.663 67.1076C542.687 70.053 545.094 72.4326 548.04 72.4226C550.985 72.4126 553.354 70.0168 553.33 67.0713C553.306 64.1259 550.898 61.7463 547.953 61.7563C545.007 61.7663 542.639 64.1622 542.663 67.1076ZM286.008 68.9799L548.004 68.0894L547.988 66.0895L285.992 66.9799L286.008 68.9799Z" fill="#E0E2DB"/>
<path d="M286.992 339.887L276.953 335.148L277.047 346.694L287.008 341.887L286.992 339.887ZM542.663 340.018C542.687 342.964 545.094 345.343 548.04 345.333C550.985 345.323 553.354 342.927 553.33 339.982C553.306 337.036 550.898 334.657 547.953 334.667C545.007 334.677 542.639 337.073 542.663 340.018ZM286.008 341.89L548.004 341L547.988 339L285.992 339.89L286.008 341.89Z" fill="#E0E2DB"/>
<path d="M287.051 680.147L277.31 675.156L276.69 686.686L286.944 682.144L287.051 680.147ZM542.668 686.88C542.51 689.822 544.769 692.26 547.714 692.326C550.658 692.392 553.174 690.061 553.332 687.12C553.49 684.178 551.231 681.74 548.286 681.674C545.342 681.608 542.826 683.939 542.668 686.88ZM285.944 682.121L547.946 687.999L548.054 686.001L286.051 680.124L285.944 682.121Z" fill="#E0E2DB"/>
<path d="M0.666698 161.939C0.690527 164.885 3.09764 167.264 6.04315 167.254C8.98865 167.244 11.3571 164.848 11.3333 161.903C11.3095 158.957 8.90236 156.578 5.95685 156.588C3.01135 156.598 0.642869 158.994 0.666698 161.939ZM267.004 162.027L277.043 166.766L276.95 155.22L266.988 160.027L267.004 162.027ZM6.00809 162.921L268.004 162.024L267.988 160.024L5.99191 160.921L6.00809 162.921Z" fill="#E0E2DB"/>
<path d="M0.666698 681.938C0.690527 684.884 3.09764 687.263 6.04315 687.253C8.98865 687.243 11.3571 684.847 11.3333 681.902C11.3095 678.956 8.90236 676.577 5.95685 676.587C3.01135 676.597 0.642869 678.993 0.666698 681.938ZM267.004 682.026L277.043 686.765L276.95 675.219L266.988 680.026L267.004 682.026ZM6.00809 682.92L268.004 682.023L267.988 680.023L5.99191 680.92L6.00809 682.92Z" fill="#E0E2DB"/>
<path d="M150.705 428C150.705 425.054 148.317 422.667 145.371 422.667C142.426 422.667 140.038 425.054 140.038 428C140.038 430.946 142.426 433.333 145.371 433.333C148.317 433.333 150.705 430.946 150.705 428ZM11.3332 428C11.3332 425.054 8.94543 422.667 5.99991 422.667C3.05439 422.667 0.666575 425.054 0.666575 428C0.666575 430.946 3.05439 433.333 5.99991 433.333C8.94543 433.333 11.3332 430.946 11.3332 428ZM145.371 427L5.99991 427L5.99991 429L145.371 429L145.371 427Z" fill="#E0E2DB"/>
<path d="M145.371 162L145.371 428" stroke="#E0E2DB" stroke-width="2"/>
</svg>
