<svg width="362" height="766" viewBox="0 0 362 766" fill="none" xmlns="http://www.w3.org/2000/svg">
<path d="M181.707 0.292908C181.317 -0.0976562 180.683 -0.0976562 180.293 0.292908L173.929 6.65686C173.538 7.04736 173.538 7.68054 173.929 8.07104C174.319 8.46161 174.953 8.46161 175.343 8.07104L181 2.41418L186.657 8.07104C187.047 8.46161 187.681 8.46161 188.071 8.07104C188.462 7.68054 188.462 7.04736 188.071 6.65686L181.707 0.292908ZM182 766L182 1H180L180 766H182Z" fill="#E0E2DB"/>
<path d="M190.995 66.9579L180.97 62.2371L181.03 73.7839L191.005 68.9579L190.995 66.9579ZM350.664 67.1175C350.68 70.063 353.08 72.4382 356.026 72.4227C358.971 72.4072 361.346 70.0069 361.331 67.0614C361.315 64.1159 358.915 61.7407 355.97 61.7562C353.024 61.7717 350.649 64.172 350.664 67.1175ZM190.005 68.9631L356.003 68.0894L355.992 66.0895L189.995 66.9631L190.005 68.9631Z" fill="#E0E2DB"/>
<path d="M190.995 339.868L180.97 335.148L181.03 346.694L191.005 341.868L190.995 339.868ZM350.664 340.028C350.68 342.974 353.08 345.349 356.026 345.333C358.971 345.318 361.346 342.917 361.331 339.972C361.315 337.026 358.915 334.651 355.97 334.667C353.024 334.682 350.649 337.083 350.664 340.028ZM190.005 341.874L356.003 341L355.992 339L189.995 339.874L190.005 341.874Z" fill="#E0E2DB"/>
<path d="M191.029 680.269L181.2 675.151L180.8 686.691L190.959 682.268L191.029 680.269ZM350.67 686.815C350.568 689.759 352.871 692.228 355.815 692.33C358.759 692.432 361.228 690.129 361.33 687.185C361.432 684.241 359.129 681.772 356.185 681.67C353.241 681.568 350.772 683.871 350.67 686.815ZM189.96 682.233L355.965 687.999L356.035 686.001L190.029 680.234L189.96 682.233Z" fill="#E0E2DB"/>
<path d="M0.66674 161.949C0.682243 164.895 3.08259 167.27 6.02807 167.254C8.97355 167.239 11.3488 164.838 11.3333 161.893C11.3178 158.947 8.91741 156.572 5.97193 156.588C3.02645 156.603 0.651238 159.004 0.66674 161.949ZM171.003 162.053L181.028 166.773L180.967 155.227L170.992 160.053L171.003 162.053ZM6.00526 162.921L172.003 162.047L171.992 160.047L5.99474 160.921L6.00526 162.921Z" fill="#E0E2DB"/>
<path d="M0.66674 681.948C0.682243 684.893 3.08259 687.269 6.02807 687.253C8.97355 687.238 11.3488 684.837 11.3333 681.892C11.3178 678.946 8.91741 676.571 5.97193 676.587C3.02645 676.602 0.651238 679.003 0.66674 681.948ZM171.003 682.051L181.028 686.772L180.967 675.225L170.992 680.052L171.003 682.051ZM6.00526 682.92L172.003 682.046L171.992 680.046L5.99474 680.92L6.00526 682.92Z" fill="#E0E2DB"/>
<path d="M101.333 428C101.333 425.054 98.9455 422.667 96 422.667C93.0545 422.667 90.6667 425.054 90.6667 428C90.6667 430.946 93.0545 433.333 96 433.333C98.9455 433.333 101.333 430.946 101.333 428ZM11.3333 428C11.3333 425.054 8.94552 422.667 6 422.667C3.05448 422.667 0.666667 425.054 0.666667 428C0.666667 430.946 3.05448 433.333 6 433.333C8.94552 433.333 11.3333 430.946 11.3333 428ZM96 427L6 427L6 429L96 429L96 427Z" fill="#E0E2DB"/>
<path d="M96 162L96 428" stroke="#E0E2DB" stroke-width="2"/>
</svg>
