<svg width="81" height="79" viewBox="0 0 81 79" fill="none" xmlns="http://www.w3.org/2000/svg">
<path fill-rule="evenodd" clip-rule="evenodd" d="M40.9421 0.00439453C18.8421 0.00439453 0.942139 17.9044 0.942139 40.0044C0.942139 57.7044 12.3921 72.6544 28.2921 77.9544C30.2921 78.3044 31.0421 77.1044 31.0421 76.0544C31.0421 75.1044 30.9921 71.9544 30.9921 68.6044C20.9421 70.4544 18.3421 66.1544 17.5421 63.9044C17.0921 62.7544 15.1421 59.2044 13.4421 58.2544C12.0421 57.5044 10.0421 55.6544 13.3921 55.6044C16.5421 55.5544 18.7921 58.5044 19.5421 59.7044C23.1421 65.7544 28.8921 64.0544 31.1921 63.0044C31.5421 60.4044 32.5921 58.6544 33.7421 57.6544C24.8421 56.6544 15.5421 53.2044 15.5421 37.9044C15.5421 33.5544 17.0921 29.9544 19.6421 27.1544C19.2421 26.1544 17.8421 22.0544 20.0421 16.5544C20.0421 16.5544 23.3921 15.5044 31.0421 20.6544C34.2421 19.7544 37.6421 19.3044 41.0421 19.3044C44.4421 19.3044 47.8421 19.7544 51.0421 20.6544C58.6921 15.4544 62.0421 16.5544 62.0421 16.5544C64.2421 22.0544 62.8421 26.1544 62.4421 27.1544C64.9921 29.9544 66.5421 33.5044 66.5421 37.9044C66.5421 53.2544 57.1921 56.6544 48.2921 57.6544C49.7421 58.9044 50.9921 61.3044 50.9921 65.0544C50.9921 70.4044 50.9421 74.7044 50.9421 76.0544C50.9421 77.1044 51.6921 78.3544 53.6921 77.9544C69.4921 72.6544 80.9421 57.6544 80.9421 40.0044C80.9421 17.9044 63.0421 0.00439453 40.9421 0.00439453Z" fill="#E0E2DB"/>
</svg>
