<svg width="80" height="80" viewBox="0 0 80 80" fill="none" xmlns="http://www.w3.org/2000/svg">
<path d="M39.9805 0C38.7638 0 37.5474 0.275481 36.4974 0.829327L3.46354 18.4315C1.33021 19.57 0 21.7255 0 24.0024V55.9375C0 58.2452 1.33021 60.37 3.46354 61.5084L12.1354 66.1238C16.3354 68.0315 17.8331 68.0288 19.7331 68.0288C25.9664 68.0288 29.5312 64.5524 29.5312 58.5216V25.5709C29.5312 25.0786 29.101 24.6755 28.5677 24.6755H24.401C23.8344 24.6755 23.431 25.0786 23.431 25.5709V58.4916C23.431 61.1993 20.4013 63.8447 15.5013 61.5986L6.43229 56.7668C6.09896 56.613 5.89844 56.276 5.89844 55.9375V24.0325C5.89844 23.6632 6.09896 23.3517 6.43229 23.1671L39.4661 5.57091C39.7661 5.3863 40.168 5.3863 40.5013 5.57091L73.5352 23.1671C73.8685 23.3517 74.069 23.6639 74.069 24.0024V55.9375C74.069 56.276 73.8677 56.613 73.5677 56.7668L40.5013 74.399C40.2013 74.5529 39.7661 74.5529 39.4661 74.399L30.9635 69.7536C30.7302 69.5998 30.4026 69.5704 30.1693 69.6935C27.8026 70.9243 27.3693 71.0772 25.1693 71.7849C24.6359 71.9387 23.8021 72.2454 25.4688 73.107L36.4974 79.1406C37.5641 79.6945 38.7674 80 39.9674 80C41.2008 80 42.3969 79.6945 43.4635 79.1406L76.5365 61.5084C78.6698 60.37 80 58.2452 80 55.9375V24.0325C80 21.7248 78.6698 19.6 76.5365 18.4615L43.4635 0.829327C42.4135 0.275481 41.1971 0 39.9805 0ZM48.8672 24.6334C39.4339 24.6334 33.8021 28.3233 33.8021 34.4772C33.8021 41.1541 39.3969 42.9974 48.4635 43.8281C59.2969 44.8127 60.1302 46.294 60.1302 48.2632C60.1302 51.6478 57.1685 53.095 50.2018 53.095C41.4352 53.095 39.5005 51.0613 38.8672 47.0613C38.8005 46.6305 38.4029 46.3221 37.9362 46.3221H33.6328C33.0995 46.3221 32.7018 46.726 32.7018 47.1875C32.7018 52.326 35.7352 58.4435 50.2018 58.4435C60.6685 58.4435 66.6667 54.6329 66.6667 47.9868C66.6667 41.4022 61.8326 39.645 51.6992 38.3834C41.3992 37.1526 40.3646 36.5063 40.3646 34.2909C40.3646 32.4447 41.2672 30.018 48.8672 30.018C55.6339 30.018 58.1659 31.3675 59.1992 35.5829C59.2992 35.9829 59.6635 36.2921 60.1302 36.2921H64.4336C64.7003 36.2921 64.9302 36.1702 65.1302 35.9856C65.2969 35.8317 65.3979 35.5834 65.3646 35.3065C64.6979 28.045 59.4672 24.6334 48.8672 24.6334Z" fill="#E0E2DB"/>
</svg>
