<svg width="68" height="80" viewBox="0 0 68 80" fill="none" xmlns="http://www.w3.org/2000/svg">
<path d="M7.80464 75.696C12.0157 76.1998 16.7471 78.933 20.7067 79.4156C24.6876 79.9192 25.9195 76.6994 25.9195 76.6994C25.9195 76.6994 30.3992 75.696 35.1089 75.5804C39.8231 75.4481 44.2855 76.5628 44.2855 76.5628C44.2855 76.5628 45.1509 78.5485 46.7663 79.4156C48.3818 80.2994 51.8597 80.419 54.0888 78.066C56.3222 75.696 62.281 72.7106 65.6269 70.8444C68.9941 68.9739 68.3762 66.1214 66.2621 65.2543C64.1481 64.3875 62.4176 63.0209 62.5497 60.3987C62.6648 57.7981 60.6828 56.0642 60.6828 56.0642C60.6828 56.0642 62.4176 50.3418 60.8022 45.6015C59.1868 40.8828 53.8589 33.294 49.763 27.5886C45.667 21.8662 49.1447 15.2597 45.4156 6.81676C41.6859 -1.63885 32.0149 -1.13904 26.8021 2.46502C21.5893 6.06933 23.1875 15.0075 23.439 19.2482C23.6904 23.4674 23.554 26.4866 23.0724 27.5715C22.5908 28.6733 19.2279 32.6748 16.9945 36.0272C14.7654 39.3966 13.1497 46.3533 11.5173 49.2231C9.91891 52.0759 11.0357 54.6765 11.0357 54.6765C11.0357 54.6765 9.91916 55.0608 9.0368 56.9315C8.17143 58.7807 6.44093 59.6645 3.32517 60.2669C0.230699 60.9031 0.230699 62.9018 0.976687 65.1395C1.72673 67.3729 0.976687 68.6242 0.111311 71.477C-0.753812 74.3294 3.57662 75.1962 7.80464 75.696ZM51.5784 62.6834C53.7905 63.6528 56.9701 62.3032 57.9377 61.3338C58.9011 60.3687 59.583 58.9338 59.583 58.9338C59.583 58.9338 60.5505 59.4164 60.4524 60.9493C60.35 62.5038 61.1173 64.7202 62.5664 65.489C64.0156 66.2534 66.2277 67.3209 65.0812 68.3885C63.9132 69.4562 57.4517 72.0612 55.521 74.0939C53.6072 76.1137 51.0925 77.7666 49.5622 77.2797C48.0152 76.7972 46.6639 74.6791 47.3291 71.5786C48.0152 68.4911 48.5949 65.1045 48.4968 63.17C48.3947 61.2355 48.0152 58.6306 48.4968 58.2461C48.9784 57.8659 49.7457 58.0495 49.7457 58.0495C49.7457 58.0495 49.3617 61.7186 51.5784 62.6834ZM37.2231 10.4211C39.3541 10.4211 41.0719 12.5392 41.0719 15.1441C41.0719 16.9933 40.2066 18.5948 38.9407 19.3635C38.6211 19.2312 38.2885 19.0816 37.922 18.9277C38.6892 18.5478 39.2218 17.5784 39.2218 16.4594C39.2218 14.9948 38.3227 13.7905 37.193 13.7905C36.0934 13.7905 35.1768 14.9945 35.1768 16.4594C35.1768 16.9935 35.3091 17.5271 35.5263 17.9456C34.8615 17.6764 34.2605 17.4461 33.7789 17.2625C33.5274 16.626 33.3781 15.9086 33.3781 15.1444C33.3784 12.5394 35.0916 10.4211 37.2231 10.4211ZM31.9462 18.5608C32.9948 18.7444 35.8759 19.9957 36.9418 20.3799C38.0074 20.7472 39.1878 21.4303 39.0728 22.1138C38.9407 22.8183 38.3909 22.8183 36.9418 23.7023C35.5096 24.5694 32.3812 26.5039 31.3794 26.6362C30.382 26.7685 29.8152 26.2047 28.7493 25.5172C27.6837 24.8168 25.685 23.1812 26.1877 22.3144C26.1877 22.3144 27.7519 21.1144 28.434 20.4995C29.1161 19.8631 30.8806 18.3642 31.9462 18.5608ZM27.3514 11.1728C29.0307 11.1728 30.399 13.1756 30.399 15.6439C30.399 16.0924 30.3478 16.5107 30.2669 16.9293C29.8492 17.0616 29.4317 17.2795 29.0307 17.6297C28.8348 17.7963 28.6512 17.9456 28.4852 18.1122C28.7493 17.6127 28.8517 16.8952 28.7323 16.1435C28.5022 14.8112 27.6028 13.8248 26.7205 13.9571C25.8338 14.1067 25.3053 15.328 25.5185 16.6776C25.753 18.0442 26.6351 19.0303 27.5344 18.881C27.5856 18.864 27.6325 18.847 27.6837 18.8297C27.2533 19.2482 26.8526 19.6155 26.4348 19.9144C25.2201 19.3463 24.3208 17.6467 24.3208 15.6439C24.3211 13.1586 25.6678 11.1728 27.3514 11.1728ZM17.9958 43.4834C19.7263 40.7505 20.8428 34.7759 22.5733 32.7901C24.3211 30.8086 25.6678 26.5851 25.0541 24.719C25.0541 24.719 28.7836 29.1901 31.3794 28.4556C33.9794 27.7039 39.8231 23.3524 40.6882 24.0998C41.5536 24.8513 48.9954 41.25 49.7455 46.4729C50.4958 51.6914 49.2469 55.6802 49.2469 55.6802C49.2469 55.6802 46.3998 54.9285 46.033 56.6623C45.6665 58.4132 45.6665 64.755 45.6665 64.755C45.6665 64.755 41.8177 70.0932 35.8589 70.977C29.9001 71.844 26.9164 71.2119 26.9164 71.2119L23.5705 67.3727C23.5705 67.3727 26.1707 66.9884 25.8039 64.3705C25.4374 61.7699 17.8589 58.1653 16.4949 54.9282C15.1314 51.6912 16.244 46.2207 17.9958 43.4834ZM3.26104 63.0679C3.55938 61.7869 7.42087 61.7869 8.90423 60.8858C10.3876 59.9847 10.6857 57.3968 11.8836 56.7136C13.0641 56.0132 15.2465 58.4988 16.1459 59.8991C17.0282 61.2657 20.4084 67.2403 21.7893 68.7263C23.1872 70.2252 24.4704 72.211 24.0696 73.9961C23.6904 75.781 21.5891 77.0836 21.5891 77.0836C19.7095 77.6645 14.4668 75.3968 12.0844 74.3974C9.70193 73.394 3.64075 73.0948 2.86079 72.211C2.05955 71.3099 3.24431 69.3242 3.55964 67.4407C3.84074 65.5362 2.95864 64.3532 3.26104 63.0679Z" fill="#E0E2DB"/>
</svg>
