<svg width="80" height="80" viewBox="0 0 80 80" fill="none" xmlns="http://www.w3.org/2000/svg">
<path d="M4.51002 37.4884C4.51002 49.0169 7.72335 59.8066 13.2967 68.148L9.94001 72.0958C3.52515 62.5315 -0.00911961 50.2265 1.7673e-05 37.4884C1.7673e-05 22.8035 4.60002 9.5306 12.0133 0.00439453L12.18 0.201127L22.1233 11.8958C17.6132 17.3146 14.6729 24.6145 13.8022 32.5548C12.9314 40.4951 14.1838 48.586 17.3467 55.4522L20.78 51.417C18.3621 45.6721 17.512 39.0167 18.3703 32.5519C19.2286 26.0871 21.7439 20.2003 25.5 15.8654L28.9 19.8656L31.93 23.4243L35.0667 27.1141C33.7261 28.2074 32.621 29.732 31.8561 31.5432C31.0913 33.3543 30.6922 35.3918 30.6967 37.4622C30.6967 42.8395 33.3467 47.3993 37.0267 49.03L37.3433 54.7003C35.1554 54.1179 33.1129 52.8285 31.4011 50.949C29.6892 49.0694 28.3622 46.6592 27.5402 43.9369C26.7182 41.2145 26.4273 38.2661 26.6938 35.359C26.9604 32.4519 27.776 29.6781 29.0667 27.2889L26.0667 23.7521L26.0533 23.739C23.6678 27.8994 22.4354 33.0025 22.5596 38.2055C22.6839 43.4086 24.1573 48.4005 26.7367 52.357L16.66 64.2046C11.8585 56.9898 9.15499 47.782 9.02691 38.2068C8.89883 28.6317 11.3544 19.3052 15.96 11.8739L12.59 7.9174C7.80714 15.5184 4.9966 24.9214 4.56668 34.7604L4.54668 34.7954L4.56335 34.8129C4.52601 35.7039 4.50711 36.5961 4.50668 37.4884H4.51002ZM42.9767 49.0257C44.6459 48.2856 46.1207 46.9394 47.2297 45.1435C48.3388 43.3477 49.0365 41.176 49.2417 38.8807C49.447 36.5855 49.1514 34.2609 48.3894 32.1773C47.6273 30.0936 46.43 28.3363 44.9367 27.1097L48.0733 23.4199L51.1 19.8612L54.5033 15.861C58.26 20.1954 60.7759 26.0819 61.6348 32.5468C62.4937 39.0116 61.6442 45.6673 59.2267 51.4127L62.6567 55.4479C65.8195 48.5816 67.0719 40.4908 66.2012 32.5504C65.3304 24.6101 62.3901 17.3102 57.88 11.8914L67.8167 0.205498L67.9833 0.00876708C71.7925 4.88764 74.8182 10.7175 76.882 17.1545C78.9458 23.5915 80.006 30.5054 80 37.4884C80 50.5164 76.35 62.7095 70.06 72.0958L66.7033 68.148C72.8442 58.9757 75.981 46.9983 75.4333 34.8129L75.45 34.7954L75.43 34.7648C75.001 24.9241 72.1904 15.5194 67.4067 7.9174L64.0467 11.8695C68.6518 19.3013 71.1068 28.6281 70.9781 38.2033C70.8494 47.7784 68.1453 56.986 63.3433 64.2003L53.2667 52.3526C55.846 48.3961 57.3195 43.4042 57.4437 38.2012C57.5679 32.9981 56.3355 27.8951 53.95 23.7347L53.9367 23.7478L50.9367 27.2802C52.2273 29.669 53.043 32.4426 53.3098 35.3494C53.5765 38.2562 53.2859 41.2044 52.4643 43.9267C51.6426 46.6489 50.3159 49.0592 48.6045 50.939C46.8931 52.8187 44.851 54.1086 42.6633 54.6915L42.9767 49.0257ZM40 80.0044L41.1167 60.0208L42.02 43.7926C43.126 43.1811 44.0366 42.0866 44.5975 40.6948C45.1583 39.303 45.3347 37.6997 45.0969 36.1567C44.859 34.6137 44.2215 33.2262 43.2925 32.2294C42.3635 31.2327 41.2002 30.6881 40 30.6881C38.7997 30.6881 37.6365 31.2327 36.7075 32.2294C35.7785 33.2262 35.141 34.6137 34.9031 36.1567C34.6653 37.6997 34.8417 39.303 35.4025 40.6948C35.9634 42.0866 36.874 43.1811 37.98 43.7926L38.8833 60.0208L40 80.0044Z" fill="#E0E2DB"/>
</svg>
