<svg width="80" height="80" viewBox="0 0 80 80" fill="none" xmlns="http://www.w3.org/2000/svg">
<path d="M30.4107 37.5668C23.0523 33.0114 19.4647 23.7245 21.6638 14.9241C23.863 6.12376 31.3005 0.00439453 39.7973 0.00439453C48.2941 0.00439453 55.7316 6.12376 57.9308 14.9241C60.1299 23.7245 56.5423 33.0114 49.1839 37.5668L43.5316 27.0693C46.459 25.2571 47.8862 21.5624 47.0113 18.0614C46.1364 14.5603 43.1776 12.1259 39.7973 12.1259C36.417 12.1259 33.4582 14.5603 32.5833 18.0614C31.7084 21.5624 33.1356 25.2571 36.063 27.0693L30.4107 37.5668Z" fill="#E0E2DB"/>
<path d="M70.6117 42.4401C77.9702 46.9955 81.5578 56.2825 79.3586 65.0828C77.1595 73.8832 69.722 80.0026 61.2252 80.0026C52.7283 80.0026 45.2908 73.8832 43.0917 65.0828C40.8926 56.2825 44.4801 46.9955 51.8386 42.4401L57.4909 52.9376C54.5635 54.7499 53.1363 58.4445 54.0111 61.9456C54.886 65.4466 57.8449 67.8811 61.2252 67.8811C64.6055 67.8811 67.5643 65.4466 68.4392 61.9456C69.3141 58.4445 67.8868 54.7499 64.9594 52.9376L70.6117 42.4401Z" fill="#E0E2DB"/>
<path d="M37.5467 59.8729C37.5467 68.9837 31.8397 76.9586 23.6324 79.3167C15.4251 81.6747 6.76398 77.8279 2.51556 69.9378C-1.73285 62.0476 -0.509201 52.0814 5.49896 45.6391C11.5071 39.1968 20.8017 37.8847 28.1601 42.4401L22.5078 52.9376C19.5804 51.1254 15.8828 51.6474 13.4925 54.2103C11.1023 56.7732 10.6155 60.7381 12.3057 63.877C13.9958 67.016 17.4415 68.5463 20.7066 67.6082C23.9717 66.6701 26.2421 63.4975 26.2421 59.8729H37.5467Z" fill="#E0E2DB"/>
</svg>
