<svg width="68" height="80" viewBox="0 0 68 80" fill="none" xmlns="http://www.w3.org/2000/svg">
<path d="M26.6806 12.5758C22.3191 9.43297 17.6461 7.14725 12.3499 5.43297C17.023 8.00439 21.696 10.2901 25.4345 13.7187C25.1229 16.8615 20.7614 18.8615 15.7768 18.5758C15.4653 18.2901 16.0884 18.2901 16.0884 17.7187C14.8422 17.433 13.2846 17.7187 12.3499 17.1473C12.3499 16.8615 12.973 16.8615 12.6615 16.5758C11.7269 16.0044 10.4807 15.7187 9.54612 15.1473C9.54612 14.8615 10.1692 14.8615 10.4807 14.5758C9.54612 14.0044 8.29997 13.7187 7.36536 12.8615C7.6769 12.5758 7.98844 12.8615 8.29997 12.2901C7.36537 11.7187 6.43076 11.1473 5.80768 10.2901C6.11922 10.0044 6.43076 10.2901 6.74229 10.0044C6.43076 9.14725 5.18461 8.57582 4.87307 7.71868C5.49615 7.71868 5.80768 8.00439 6.43076 7.43297C5.80768 6.57582 4.56154 6.29011 4.25 5.14725C4.56154 4.86154 5.18461 5.14725 5.49615 4.86154C5.49615 4.00439 4.87307 3.43297 4.56154 2.57582C5.49615 2.29011 6.74229 2.57582 7.6769 2.29011C7.6769 2.00439 7.36536 1.71868 7.36536 1.43297C8.61151 0.861537 9.85766 1.43297 11.1038 1.71868C11.4153 1.14725 10.7923 1.14725 11.1038 0.575823C12.0384 0.575823 12.973 1.14725 14.2192 1.14725C14.5307 0.575823 13.5961 0.575823 13.5961 0.00439453C14.8422 0.00439453 15.7769 0.575823 16.7115 1.14725C17.023 0.861538 16.7115 0.575823 17.023 0.00439453C17.9576 0.290109 18.5807 0.861537 19.5153 1.43297C20.1384 1.43297 19.8268 0.861537 20.1384 0.575823C21.073 0.861537 21.696 1.71868 22.3191 2.00439C22.9422 2.00439 22.6307 1.43297 22.9422 1.14725C23.8768 1.71868 24.4999 2.57582 25.1229 3.14725C25.746 3.14725 25.4345 2.57582 26.0576 2.57582C27.9268 4.57582 29.796 6.86154 29.4845 9.71868C29.4845 11.1473 28.2383 12.0044 26.6806 12.5758Z" fill="#E0E2DB"/>
<path d="M56.8997 14.5758C57.2112 14.8615 57.5228 14.8615 57.8343 14.8615C56.8997 15.7187 55.6535 15.7187 54.4074 16.2901C54.4074 16.5758 54.7189 16.5758 54.7189 16.8615C53.7843 17.433 52.2266 17.1473 51.292 17.433C50.9805 17.7187 51.6036 18.0044 51.292 18.2901C50.0459 18.5758 48.7997 18.2901 47.2421 18.0044C44.4382 17.433 42.2575 16.2901 41.3229 13.7187C45.0613 10.0044 49.7343 7.71868 54.4074 5.43297C49.1113 7.14725 44.4382 9.43297 40.0767 12.2901C38.2075 11.7187 37.2729 10.2901 37.2729 8.57582C37.2729 6.57582 39.1421 3.43297 41.0113 2.00439L41.6344 2.86154C42.569 2.29011 43.1921 1.14725 44.1267 0.861537C44.4382 1.14725 44.1267 1.71868 44.7498 1.71868C45.3728 1.43297 45.9959 0.575823 46.9305 0.290109C47.242 0.575823 46.9305 0.861538 47.5536 1.14725C48.4882 1.14725 49.1113 0.290109 50.3574 0.00439453C50.3574 0.290109 50.0459 0.575823 50.3574 1.14725C51.292 0.575823 52.2266 0.00439453 53.4728 0.00439453C53.4728 0.290109 52.8497 0.575823 53.1612 1.14725C54.0959 1.14725 55.0305 0.575823 56.2766 0.575823C56.2766 0.861537 55.9651 1.14725 56.2766 1.71868C57.5228 1.43297 58.7689 1.14725 60.015 1.43297C60.015 1.71868 59.7035 2.00439 59.7035 2.29011C60.6381 2.57582 61.8843 2.29011 62.8189 2.57582C62.5073 3.43297 61.5727 4.00439 61.5727 4.86154C61.8843 5.14725 62.5073 4.86154 62.8189 5.14725C62.5073 6.29011 61.2612 6.57582 60.9497 7.43297C61.2612 8.00439 61.8843 7.43296 62.1958 7.71868C61.8843 8.57582 60.6381 9.14725 60.015 10.0044C60.3266 10.5758 60.6381 10.2901 60.9497 10.2901C60.3266 11.1473 59.392 11.433 58.7689 12.2901C59.0804 12.5758 59.392 12.5758 59.7035 12.8615C59.0804 13.7187 57.8343 14.0044 56.8997 14.5758Z" fill="#E0E2DB"/>
<path d="M32.1732 40.0044C32.1732 45.1473 27.8117 50.2901 22.2041 51.433C16.5964 52.5759 11.6118 48.8616 11.3003 43.7187C10.9887 38.5759 15.0387 33.433 20.3348 32.2901C26.8771 30.5759 32.1732 34.2901 32.1732 40.0044Z" fill="#E0E2DB"/>
<path d="M57.0964 42.5759C57.0964 48.5759 51.4887 52.2902 45.258 50.5759C39.6503 48.8616 35.6004 43.4331 36.535 38.0045C37.4696 32.8616 43.0772 29.7188 48.6849 31.7188C53.6695 33.4331 57.0964 38.0045 57.0964 42.5759Z" fill="#E0E2DB"/>
<path d="M34.3542 49.7188C37.4696 49.7188 40.5849 50.8616 42.7657 53.1473C46.5041 56.8616 46.1926 62.2902 42.1426 65.433C38.0926 68.5759 31.5504 68.8616 27.5004 65.7188C24.385 63.433 23.1389 60.5759 23.762 56.8616C24.6966 53.1473 27.5004 51.1473 31.2388 50.0045C32.1735 50.0045 33.1081 49.7188 34.3542 49.7188Z" fill="#E0E2DB"/>
<path d="M45.8811 66.5759C46.1926 63.7187 47.4388 60.8616 49.9311 58.2902C51.4888 56.8616 53.0464 55.433 54.6041 54.2902C55.5387 53.7187 56.4733 53.433 57.408 53.1473C59.2772 52.8616 60.8349 53.433 61.4579 55.1473C62.7041 58.0044 63.0156 60.8616 61.4579 63.7187C59.5887 67.7187 56.1618 70.2902 51.4888 71.1473C51.1772 71.1473 50.5542 71.1473 49.9311 71.1473C47.1273 71.433 45.8811 70.2902 45.8811 66.5759Z" fill="#E0E2DB"/>
<path d="M5.69287 59.1473C5.69287 59.1473 5.69287 58.5759 5.69287 58.2901C6.00441 55.1473 7.87363 54.0044 11.3005 54.8616C16.5966 56.2901 21.5812 62.0044 21.8928 67.1473C21.8928 70.2901 20.3351 71.7187 16.9082 71.1473C12.2351 70.5759 9.11977 68.2901 7.25055 64.5759C6.00441 62.8616 5.69287 61.1473 5.69287 59.1473Z" fill="#E0E2DB"/>
<path d="M34.6658 30.8616C32.1735 30.8616 29.6812 30.5759 27.5004 29.433C23.4505 27.433 23.4505 24.8616 26.8774 22.5759C31.5504 19.433 37.7811 19.7187 42.1426 23.1473C42.4542 23.433 42.7657 23.7187 43.0772 24.0045C44.6349 25.7187 44.3234 27.433 42.4542 28.8616C40.8965 30.0045 39.0273 30.2902 37.1581 30.5759C36.2234 30.8616 35.2888 30.8616 34.6658 30.8616Z" fill="#E0E2DB"/>
<path d="M34.0426 80.0044C30.3041 80.0044 27.1888 78.5758 24.3849 76.0044C23.1388 74.8616 23.1388 73.7187 24.6965 72.8616C26.8772 71.7187 29.058 71.1473 31.5503 70.8616C34.6656 70.5758 37.781 70.5758 40.8964 71.433C41.5195 71.7187 42.4541 72.0044 43.0771 72.2901C44.9464 73.1473 45.2579 74.0044 43.7002 75.7187C43.7002 75.7187 43.7002 75.7187 43.3887 76.0044C41.2079 78.5758 38.0925 80.0044 34.0426 80.0044Z" fill="#E0E2DB"/>
<path d="M8.49654 42.2902C8.49654 45.433 7.87346 48.2902 6.62732 51.1473C6.31578 52.0045 6.00425 52.5759 5.38117 53.1473C4.44656 54.2902 3.82349 54.2902 2.88888 53.433C-1.47263 49.433 -0.849558 41.7188 4.44656 38.2902C6.31578 36.8616 7.56193 37.1473 8.185 39.433C8.185 40.2902 8.49654 41.433 8.49654 42.2902Z" fill="#E0E2DB"/>
<path d="M68 46.5759C68 48.8616 67.0654 51.433 65.1962 53.433C64.2616 54.2901 63.6385 54.2901 62.7039 53.433C61.7693 52.2901 61.1462 50.8616 60.8347 49.433C59.9001 46.5759 59.5886 43.433 59.9001 40.2901C59.9001 39.7187 60.2116 38.8616 60.5232 38.2901C61.1462 37.1473 61.7693 36.8616 63.0155 37.7187C66.1308 39.433 68 42.5759 68 46.5759Z" fill="#E0E2DB"/>
<path d="M7.56187 34.0044C7.25034 30.2901 8.49648 26.8615 11.9234 24.5758C15.3503 22.2901 19.0887 21.7187 23.1387 22.2901C23.1387 23.1472 22.5156 23.7187 22.2041 24.2901C20.0233 26.8615 17.2195 28.8615 14.7272 30.8615C13.1695 32.0044 11.6118 32.8615 10.0542 33.7187C8.80802 34.0044 8.18495 34.5758 7.56187 34.0044Z" fill="#E0E2DB"/>
<path d="M60.8347 34.2902C60.2116 34.5759 59.277 34.2902 58.6539 33.7187C56.4732 32.5759 54.2924 31.1473 52.4232 29.7187C50.2424 28.0045 48.3732 26.2902 46.504 24.5759C46.1925 24.0045 45.5694 23.433 45.5694 22.8616C47.4386 22.0045 53.6693 22.2902 56.7847 24.8616C59.9001 27.1473 61.7693 31.7187 60.8347 34.2902Z" fill="#E0E2DB"/>
</svg>
