<svg width="60" height="80" viewBox="0 0 60 80" fill="none" xmlns="http://www.w3.org/2000/svg">
<path d="M25.2171 79.9535C17.7286 79.4137 10.3273 77.5288 5.78816 75.0054C3.20265 73.5682 1.23285 71.8018 0.459891 70.2275L0 69.2908V39.9101V10.5295L0.363909 9.79056C1.99016 6.48885 7.18027 3.51233 14.4254 1.72639C16.8847 1.1201 20.4352 0.516338 23.3317 0.211881C26.2894 -0.0990907 34.129 -0.0517786 37.0793 0.295307C44.9207 1.21656 51.5933 3.27903 55.7053 6.05263C57.2911 7.12223 58.9183 8.8337 59.4695 10.0118L59.9422 11.0218L59.9017 40.3136L59.8613 69.6055L59.4819 70.3763C59.2732 70.8002 58.6429 71.6342 58.0813 72.2295C54.6621 75.8541 47.3279 78.5354 37.7079 79.6778C35.7471 79.9107 27.2287 80.0985 25.2171 79.9535ZM39.0171 54.7782C38.9883 54.7031 37.8689 53.7059 36.5294 52.562C35.19 51.4181 34.0364 50.4284 33.9659 50.3627C33.8954 50.297 34.1429 50.0644 34.5158 49.8457C34.8888 49.6271 35.6034 49.0189 36.1038 48.4941C37.5672 46.9596 38.2577 45.064 38.2577 42.5811C38.2577 40.1368 37.513 38.1646 36.0215 36.6591C34.5183 35.1416 32.7922 34.4896 30.2787 34.4896C26.4044 34.4896 23.4289 36.7503 22.4791 40.4154C22.1524 41.6761 22.1542 44.2235 22.4826 45.3414C23.339 48.2572 25.6716 50.3749 28.5747 50.8722C29.5571 51.0405 29.6902 51.113 30.3599 51.8453C30.758 52.2804 31.5748 53.1491 32.1751 53.7756L33.2665 54.9147H36.168C37.7638 54.9147 39.0459 54.8533 39.0171 54.7782ZM29.0668 46.6543C28.3683 46.2901 28.1042 46.0074 27.7058 45.1977C27.3982 44.5722 27.3456 44.2165 27.3421 42.7383C27.3387 41.2362 27.3865 40.9116 27.7077 40.2594C28.2333 39.1921 28.9575 38.6868 30.0778 38.6058C31.6373 38.4926 32.5375 39.258 33.0093 41.0973C33.5877 43.3524 32.9516 45.75 31.5638 46.5457C30.8357 46.9631 29.7497 47.0104 29.0668 46.6543ZM16.2061 50.8402C19.2481 50.2633 20.975 48.4942 20.975 45.9546C20.975 43.7016 19.8601 42.3888 16.7788 41.0132C15.0149 40.2258 14.376 39.7315 14.376 39.1541C14.376 38.6754 14.9824 38.1509 15.6882 38.0192C16.3774 37.8905 18.2052 38.2079 19.2846 38.6439L20.1894 39.0095V37.0067V35.0039L19.2074 34.786C18.6005 34.6514 17.3252 34.5706 15.8687 34.5747C13.8055 34.5747 13.4015 34.625 12.6251 34.9334C10.3571 35.8337 9.28092 37.3674 9.29813 39.6745C9.31425 41.8343 10.4536 43.1815 13.2893 44.3935C14.9624 45.1086 15.633 45.6531 15.633 46.2966C15.633 47.664 13.3546 47.8323 10.9423 46.643C10.2817 46.3173 9.68814 46.0243 9.62333 45.9919C9.55853 45.9594 9.50551 46.895 9.50551 48.0709C9.50551 50.1994 9.50778 50.2096 9.89314 50.3563C11.3443 50.9081 14.5517 51.1539 16.2061 50.8402ZM50.9841 48.8657V47.0589H48.2346H45.485V40.8528V34.6467H43.0497H40.6145V42.6596V50.6725H45.7992H50.9841V48.8657ZM34.0156 17.2028C38.8549 16.8672 42.4825 16.2334 45.6747 15.1661C48.8549 14.1028 50.7335 12.8162 51.1537 11.4137C51.3156 10.8732 51.304 10.6682 51.0778 10.0757C50.0632 7.41908 44.3956 5.37801 35.735 4.55047C32.0304 4.19641 25.293 4.31119 21.7607 4.78833C16.371 5.51656 11.9969 6.86922 10.052 8.40922C6.11774 11.5246 10.2783 14.9512 19.9538 16.564C24.149 17.2633 29.5842 17.5102 34.0156 17.2028Z" fill="#E0E2DB"/>
</svg>
