<svg width="80" height="80" viewBox="0 0 80 80" fill="none" xmlns="http://www.w3.org/2000/svg">
<path d="M80 40C80 39.3333 79.9733 38.6667 79.9467 38C79.9467 37.7867 79.92 37.5467 79.8933 37.3333C79.8667 36.9067 79.84 36.4533 79.7867 36.0267C79.76 35.76 79.7333 35.4933 79.7067 35.2267C79.6533 34.8533 79.6267 34.4533 79.5467 34.08C79.4933 33.7867 79.4667 33.52 79.4133 33.2267C79.36 32.8533 79.28 32.5067 79.2267 32.16C79.1733 31.8667 79.0933 31.5733 79.04 31.28C78.96 30.9333 78.88 30.6133 78.8 30.2667C78.72 29.9733 78.64 29.68 78.56 29.3867C78.48 29.0667 78.3733 28.7467 78.2933 28.4267C78.2133 28.1333 78.1067 27.84 78 27.5467C77.8933 27.2267 77.7867 26.9333 77.68 26.6133C77.5733 26.32 77.4667 26.0267 77.36 25.7333C77.2533 25.44 77.12 25.1467 77.0133 24.8533C76.88 24.56 76.7733 24.2667 76.64 23.9733C76.5067 23.68 76.4 23.3867 76.2667 23.12C76.1333 22.8267 76 22.5333 75.8667 22.24C75.7333 21.9733 75.6 21.7067 75.4667 21.4133C75.3067 21.12 75.1733 20.8267 75.0133 20.56C74.88 20.2933 74.72 20.0533 74.56 19.7867C74.4 19.4933 74.24 19.2267 74.0533 18.9333C73.8933 18.6933 73.7333 18.4267 73.5733 18.1867C73.3867 17.8933 73.2 17.6267 73.0133 17.36C72.8533 17.12 72.6933 16.9067 72.5067 16.6667C72.2933 16.4 72.1067 16.1067 71.92 15.84C71.76 15.6267 71.5733 15.4133 71.4133 15.1733C71.2 14.9067 70.9867 14.64 70.7467 14.3467C70.5867 14.1333 70.4 13.9467 70.24 13.76C70 13.4933 69.76 13.2267 69.52 12.9333C69.52 12.9333 69.4933 12.9067 69.4667 12.88C66.48 9.65333 62.9867 6.88 59.0667 4.77333C58.4267 4.42667 57.76 4.08 57.0933 3.78667C56.88 3.68 56.6933 3.6 56.48 3.49333C56 3.28 55.52 3.06667 55.04 2.88C54.8 2.77333 54.56 2.69333 54.32 2.58667C53.84 2.4 53.3333 2.21333 52.8267 2.05333C52.6133 1.97333 52.3733 1.89333 52.16 1.84C51.4667 1.62667 50.7467 1.41333 50.0267 1.22667H50C49.28 1.04 48.5333 0.88 47.7867 0.72C47.5467 0.666667 47.3333 0.64 47.0933 0.586667C46.56 0.506667 46.0267 0.4 45.4933 0.346667C45.2267 0.293333 44.96 0.266667 44.6933 0.24C44.16 0.186667 43.6267 0.133333 43.0667 0.08C42.8267 0.0533333 42.5867 0.0266667 42.3467 0.0266667C41.5733 0.0266667 40.8 0 40 0C32.5867 0 25.68 2.02667 19.7333 5.52C19.5467 5.62667 19.3333 5.73333 19.1467 5.86667C17.1733 7.09333 15.3067 8.48 13.5733 10C12.96 10.56 12.32 11.12 11.7333 11.7067C11.1467 12.2933 10.5867 12.9067 10.0267 13.5467C8.88 14.8267 7.81333 16.1867 6.85333 17.6267C6.8 17.68 6.77333 17.76 6.72 17.8133C6.21333 18.56 5.76 19.3333 5.30667 20.1067C5.06667 20.56 4.8 21.0133 4.56 21.44C2.88 24.6667 1.6 28.1067 0.853333 31.76C0.8 32 0.773333 32.24 0.72 32.48C0.24 34.9333 0 37.44 0 40C0 62.1067 17.92 80 40 80C40.6933 80 41.3867 79.9733 42.0533 79.9467C46.4267 79.7333 50.5867 78.8 54.4533 77.28C55.1467 77.0133 55.84 76.72 56.5067 76.4C57.7867 75.8133 59.04 75.1733 60.2667 74.4533C60.72 74.1867 61.1733 73.8933 61.6267 73.6C62.8 72.8533 63.92 72.0267 65.0133 71.1733C66.16 70.2667 67.2533 69.3067 68.2667 68.2667C68.8 67.7333 69.3067 67.2 69.7867 66.6667C70.4533 65.92 71.0933 65.1467 71.7067 64.3467C72.2933 63.6 72.8533 62.8267 73.36 62C73.8933 61.2 74.4 60.3467 74.88 59.52C78.1333 53.7333 80 47.0933 80 40Z" fill="#E0E2DB"/>
<path d="M64.16 23.2533C68.3467 19.52 71.6533 9.12001 67.9467 3.68001C62.5867 -4.21332 50.0533 16.0533 48.32 19.4133C47.8933 18.2133 46.8533 16.6667 45.6 16.3467C44.64 17.3067 44.6133 19.28 44.88 20.4C41.2267 17.04 26.1333 10.4533 20.9867 14.4533C19.9733 15.2267 20.2133 16.8 20.2133 16.8C20.8267 22.4267 26.9333 31.8933 32.6933 31.4133C28.1867 37.5733 27.6 48.24 39.0933 48C47.04 47.8133 47.9733 40.6933 49.52 34.24C50 37.0667 51.4667 41.5467 52.7733 43.0933C53.3067 40.8 52.3467 36.6133 51.28 33.84C56.1333 39.2 63.0133 46.48 69.7867 38.4533C75.4667 31.7067 70.7467 26.5867 64.16 23.2533Z" fill="#2F2F2F"/>
<path d="M14.8267 62.1333V62.5067C14.8267 63.6533 15.1467 64.4 16.4533 64.4C17.2 64.4 17.92 63.92 17.92 62.88C17.92 61.76 17.36 61.36 15.7333 60.8C13.5467 60.0533 12.5333 59.1467 12.5333 57.0933C12.5333 54.72 14 53.4933 16.32 53.4933C18.5067 53.4933 20.1067 54.4533 20.1067 56.7733V57.12H17.7333C17.7333 55.9733 17.3333 55.3067 16.4 55.3067C15.28 55.3067 14.9867 56 14.9867 56.72C14.9867 57.4667 15.2 57.9467 16.2667 58.3733L18.16 59.2C20.0267 60 20.48 60.9333 20.48 62.4267C20.48 65.0133 18.9067 66.1867 16.2133 66.1867C13.4133 66.1867 12.32 64.88 12.32 62.6133V62.1333C12.3467 62.1333 14.8267 62.1333 14.8267 62.1333Z" fill="#2F2F2F"/>
<path d="M28.88 53.7067V55.7333H26.2133V65.9467H23.7333V55.7333H21.0667V53.7067H28.88Z" fill="#2F2F2F"/>
<path d="M30 53.7067H33.68L35.4133 62.3467H35.44L37.2 53.7067H40.8533V65.9467H38.5867V56.1867H38.56L36.3733 65.9467H34.4533L32.2667 56.1867V65.9467H30V53.7067Z" fill="#2F2F2F"/>
<path d="M44.8533 59.0934H45.6C46.88 59.0934 47.4667 58.16 47.4667 56.9333C47.4667 55.8133 47.0667 54.9067 45.8933 54.9067C44.2933 54.9067 44.16 56.3734 44.16 57.28H42.64C42.64 55.2 43.6267 53.7867 45.8667 53.7867C48.4 53.7867 48.9867 55.6 48.9867 56.9333C48.9867 58.16 48.3733 59.2267 47.0933 59.5467V59.5733C48.4533 59.84 49.3333 60.72 49.3333 62.4C49.3333 64.6133 48.2133 66.16 45.8933 66.16C42.64 66.16 42.4533 63.3067 42.4533 62.7733V62.6134H43.9733C43.9733 63.7334 44.5067 65.0134 45.92 65.0134C46.8 65.0134 47.8667 64.56 47.8667 62.5067C47.8667 61.0933 47.1733 60.1867 45.68 60.1867H44.9067V59.0934H44.8533Z" fill="#2F2F2F"/>
<path d="M57.4933 65.9467H50.72C50.72 63.68 52 62.16 53.3333 60.9867L54.32 60.16C55.3067 59.3334 55.92 58.5867 55.92 57.2534C55.92 56.2134 55.4667 55.0667 54.16 55.0667C52.2933 55.0667 52.24 57.0134 52.24 57.68H50.72C50.72 55.3867 51.68 53.8134 54.16 53.8134C56.96 53.8134 57.4133 56 57.4133 57.04C57.4133 58.9067 56.64 59.8667 55.28 61.04L53.5733 62.5334C52.9067 63.0934 52.4267 63.8134 52.24 64.6134H57.44L57.4933 65.9467Z" fill="#2F2F2F"/>
</svg>
